<?xml version="1.0" encoding="UTF-8" standalone="no"?>
<!-- Created with Inkscape (http://www.inkscape.org/) -->

<svg
   xmlns:dc="http://purl.org/dc/elements/1.1/"
   xmlns:cc="http://creativecommons.org/ns#"
   xmlns:rdf="http://www.w3.org/1999/02/22-rdf-syntax-ns#"
   xmlns:svg="http://www.w3.org/2000/svg"
   xmlns="http://www.w3.org/2000/svg"
   xmlns:xlink="http://www.w3.org/1999/xlink"
   xmlns:sodipodi="http://sodipodi.sourceforge.net/DTD/sodipodi-0.dtd"
   xmlns:inkscape="http://www.inkscape.org/namespaces/inkscape"
   width="800"
   height="800"
   viewBox="0 0 211.66666 211.66667"
   version="1.1"
   id="svg8"
   sodipodi:docname="tosc.svg"
   inkscape:version="0.92.2 2405546, 2018-03-11"
   inkscape:export-filename="/home/chalker/tosc.png"
   inkscape:export-xdpi="164.57143"
   inkscape:export-ydpi="164.57143">
  <defs
     id="defs2">
    <linearGradient
       id="linearGradient14534"
       inkscape:collect="always">
      <stop
         id="stop14530"
         offset="0"
         style="stop-color:#2962ff;stop-opacity:1" />
      <stop
         id="stop14532"
         offset="1"
         style="stop-color:#0000ff;stop-opacity:0;" />
    </linearGradient>
    <linearGradient
       inkscape:collect="always"
       id="linearGradient14522">
      <stop
         style="stop-color:#d50000;stop-opacity:1"
         offset="0"
         id="stop14518" />
      <stop
         style="stop-color:#ff0000;stop-opacity:0;"
         offset="1"
         id="stop14520" />
    </linearGradient>
    <linearGradient
       gradientTransform="matrix(0.94285717,0,0,0.94285717,18.520821,-1.5494009)"
       inkscape:collect="always"
       xlink:href="#linearGradient14522"
       id="linearGradient8590-9-09-3"
       x1="115.05367"
       y1="153.88445"
       x2="98.216553"
       y2="195.97725"
       gradientUnits="userSpaceOnUse" />
    <linearGradient
       gradientTransform="matrix(0.94285717,0,0,0.94285717,18.520821,-1.5494009)"
       inkscape:collect="always"
       xlink:href="#linearGradient14534"
       id="linearGradient8526-7-5-8"
       x1="50.511375"
       y1="201.58963"
       x2="98.216553"
       y2="221.23293"
       gradientUnits="userSpaceOnUse" />
    <linearGradient
       gradientTransform="matrix(0.94285717,0,0,0.94285717,238.12499,16.97143)"
       inkscape:collect="always"
       xlink:href="#linearGradient14522"
       id="linearGradient8590-9-09-3-7"
       x1="115.05367"
       y1="153.88445"
       x2="98.216553"
       y2="195.97725"
       gradientUnits="userSpaceOnUse" />
    <linearGradient
       gradientTransform="matrix(0.94285717,0,0,0.94285717,238.12499,16.971422)"
       inkscape:collect="always"
       xlink:href="#linearGradient14534"
       id="linearGradient8526-7-5-8-5"
       x1="50.511375"
       y1="201.58963"
       x2="98.216553"
       y2="221.23293"
       gradientUnits="userSpaceOnUse" />
  </defs>
  <sodipodi:namedview
     id="base"
     pagecolor="#ffffff"
     bordercolor="#666666"
     borderopacity="1.0"
     inkscape:pageopacity="0.0"
     inkscape:pageshadow="2"
     inkscape:zoom="0.70000001"
     inkscape:cx="395.39288"
     inkscape:cy="713.32284"
     inkscape:document-units="px"
     inkscape:current-layer="layer1"
     showgrid="true"
     inkscape:window-width="3200"
     inkscape:window-height="1677"
     inkscape:window-x="0"
     inkscape:window-y="0"
     inkscape:window-maximized="1"
     units="px">
    <inkscape:grid
       type="xygrid"
       id="grid8634" />
  </sodipodi:namedview>
  <metadata
     id="metadata5">
    <rdf:RDF>
      <cc:Work
         rdf:about="">
        <dc:format>image/svg+xml</dc:format>
        <dc:type
           rdf:resource="http://purl.org/dc/dcmitype/StillImage" />
        <dc:title />
      </cc:Work>
    </rdf:RDF>
  </metadata>
  <g
     inkscape:label="Layer 1"
     inkscape:groupmode="layer"
     id="layer1"
     transform="translate(0,-85.333317)">
    <circle
       style="fill:#00c853;fill-opacity:1;stroke:none;stroke-width:0.99785715;stroke-linecap:square;stroke-miterlimit:10;stroke-dasharray:0.99785717, 11.9742861;stroke-dashoffset:0;stroke-opacity:1"
       id="path8514-3-7-6"
       cx="325.4375"
       cy="209.68748"
       r="87.3125" />
    <circle
       style="fill:url(#linearGradient8526-7-5-8-5);fill-opacity:1;stroke:none;stroke-width:0.99785715;stroke-linecap:square;stroke-miterlimit:10;stroke-dasharray:0.99785716, 11.97428604;stroke-dashoffset:0;stroke-opacity:1"
       id="path8514-35-7-6-5"
       cx="325.4375"
       cy="209.68748"
       r="87.3125" />
    <circle
       style="fill:url(#linearGradient8590-9-09-3-7);fill-opacity:1;stroke:none;stroke-width:0.99785715;stroke-linecap:square;stroke-miterlimit:10;stroke-dasharray:0.99785718, 11.97428631;stroke-dashoffset:0;stroke-opacity:1"
       id="path8514-3-9-0-7-8-6"
       cx="325.4375"
       cy="209.68748"
       r="87.3125" />
    <rect
       style="fill:#ffffff;fill-opacity:1;stroke:none;stroke-width:2.64583325;stroke-linecap:square;stroke-miterlimit:4;stroke-dasharray:none;stroke-dashoffset:0;stroke-opacity:1"
       id="rect4987"
       width="211.66667"
       height="211.66667"
       x="0"
       y="85.333313"
       rx="21.166666"
       ry="21.166666" />
    <circle
       style="fill:#ffffff;fill-opacity:1;stroke:none;stroke-width:1.05833328;stroke-linecap:square;stroke-miterlimit:10;stroke-dasharray:1.05833333, 12.69999998;stroke-dashoffset:0;stroke-opacity:1"
       id="path8596"
       cx="325.4375"
       cy="209.68738"
       r="74.083336" />
    <g
       style="stroke-width:2.64583325;stroke-miterlimit:4;stroke-dasharray:none"
       id="g8670"
       transform="translate(232.83332,5.2915728)">
      <path
         sodipodi:nodetypes="cc"
         inkscape:connector-curvature="0"
         id="path8636"
         d="M 89.958332,130.31248 C 91.016667,147.5104 47.625,193.01873 21.166666,184.55207"
         style="fill:none;fill-rule:evenodd;stroke:#000000;stroke-width:2.64583325;stroke-linecap:butt;stroke-linejoin:miter;stroke-miterlimit:4;stroke-dasharray:none;stroke-opacity:1" />
      <path
         sodipodi:nodetypes="cc"
         inkscape:connector-curvature="0"
         id="path8638"
         d="m 74.083339,131.6354 c 5.291668,23.8125 64.822911,43.65625 80.697911,31.75"
         style="fill:none;fill-rule:evenodd;stroke:#000000;stroke-width:2.64583325;stroke-linecap:butt;stroke-linejoin:miter;stroke-miterlimit:4;stroke-dasharray:none;stroke-opacity:1" />
      <path
         sodipodi:nodetypes="cc"
         inkscape:connector-curvature="0"
         id="path8640"
         d="M 30.427083,162.06248 C 59.53125,179.2604 63.5,241.43748 42.333333,259.95832"
         style="fill:none;fill-rule:evenodd;stroke:#000000;stroke-width:2.64583325;stroke-linecap:butt;stroke-linejoin:miter;stroke-miterlimit:4;stroke-dasharray:none;stroke-opacity:1" />
      <path
         sodipodi:nodetypes="cc"
         inkscape:connector-curvature="0"
         id="path8642"
         d="m 46.302083,146.18748 c 21.166667,23.8125 1.322917,83.34375 -18.520833,95.25"
         style="fill:none;fill-rule:evenodd;stroke:#000000;stroke-width:2.64583325;stroke-linecap:butt;stroke-linejoin:miter;stroke-miterlimit:4;stroke-dasharray:none;stroke-opacity:1" />
      <path
         sodipodi:nodetypes="cc"
         inkscape:connector-curvature="0"
         id="path8644"
         d="M 34.395835,250.6979 C 51.59375,236.14582 95.25,254.66665 96.572917,278.47915"
         style="fill:none;fill-rule:evenodd;stroke:#000000;stroke-width:2.64583325;stroke-linecap:butt;stroke-linejoin:miter;stroke-miterlimit:4;stroke-dasharray:none;stroke-opacity:1" />
      <path
         sodipodi:nodetypes="cc"
         inkscape:connector-curvature="0"
         id="path8646"
         d="m 70.114583,275.83332 c 6.614585,-21.16667 42.333347,-21.16669 50.270847,-2.64585"
         style="fill:none;fill-rule:evenodd;stroke:#000000;stroke-width:2.64583325;stroke-linecap:butt;stroke-linejoin:miter;stroke-miterlimit:4;stroke-dasharray:none;stroke-opacity:1" />
      <path
         sodipodi:nodetypes="cc"
         inkscape:connector-curvature="0"
         id="path8648"
         d="m 108.47917,277.15623 c -11.906253,-30.42708 38.36458,-85.98958 56.88542,-91.28125"
         style="fill:none;fill-rule:evenodd;stroke:#000000;stroke-width:2.64583325;stroke-linecap:butt;stroke-linejoin:miter;stroke-miterlimit:4;stroke-dasharray:none;stroke-opacity:1" />
      <path
         sodipodi:nodetypes="cc"
         inkscape:connector-curvature="0"
         id="path8650"
         d="m 133.61458,142.21873 c -17.19791,25.13542 -10.58333,99.21876 11.90625,115.09375"
         style="fill:none;fill-rule:evenodd;stroke:#000000;stroke-width:2.64583325;stroke-linecap:butt;stroke-linejoin:miter;stroke-miterlimit:4;stroke-dasharray:none;stroke-opacity:1" />
    </g>
    <path
       style="fill:#00c853;fill-opacity:1;stroke:none;stroke-width:0.99785715;stroke-linecap:square;stroke-miterlimit:10;stroke-dasharray:0.99785716, 11.97428608;stroke-dashoffset:0;stroke-opacity:1"
       d="m 105.83334,103.85415 a 87.312499,87.312499 0 0 0 -87.312507,87.3125 87.312499,87.312499 0 0 0 87.312507,87.3125 87.312499,87.312499 0 0 0 87.31249,-87.3125 87.312499,87.312499 0 0 0 -87.31249,-87.3125 z m 0,13.22916 a 74.083335,74.083335 0 0 1 39.63375,11.5931 c -3.67065,5.55429 -6.22774,13.11363 -7.7897,21.76094 -4.4512,-0.99773 -9.03419,-2.34953 -13.52786,-4.00286 -8.66136,-3.18673 -16.99379,-7.48397 -23.42545,-12.39872 -0.58626,-0.44799 -1.15055,-0.90253 -1.70325,-1.36013 3.58528,-5.8213 5.71354,-11.18706 5.49217,-15.54582 a 74.083335,74.083335 0 0 1 1.32034,-0.0465 z m -3.96514,0.14056 c 0.17598,3.25179 -1.59,8.20378 -4.87309,13.68289 -4.06453,-3.75447 -6.939547,-7.76055 -8.121467,-11.76517 a 74.083335,74.083335 0 0 1 12.994557,-1.91772 z m -15.587164,2.49959 c 1.36901,4.83967 4.719251,9.36007 9.275924,13.4674 -0.0183,0.0279 -0.0354,0.0553 -0.0538,0.0832 -4.255111,6.43546 -10.342083,13.40358 -17.271299,19.56469 -2.66573,2.37023 -5.457824,4.61916 -8.315772,6.67815 -0.383789,-10.51507 -3.092572,-20.13802 -9.113604,-27.11152 a 74.083335,74.083335 0 0 1 25.478551,-12.68192 z m 61.438634,10.34201 a 74.083335,74.083335 0 0 1 19.1642,19.27169 c -3.57482,2.45786 -9.84589,3.43918 -17.34157,2.90938 -2.91237,-0.20584 -6.00423,-0.62912 -9.18962,-1.24695 1.52265,-8.49896 3.96954,-15.81553 7.36699,-20.93412 z m -88.987339,3.992 c 5.829795,6.70703 8.380537,16.5022 8.529196,27.30428 -2.220381,1.48397 -4.468971,2.83846 -6.720004,4.03644 -3.856363,-7.07164 -8.880313,-13.03001 -15.116908,-17.02841 a 74.083335,74.083335 0 0 1 13.307716,-14.31231 z m 38.850339,0.86455 c 0.50202,0.40977 1.01151,0.81682 1.53583,1.2175 6.71484,5.13114 15.2501,9.5145 24.11739,12.77699 4.64802,1.71012 9.38393,3.10776 14.0007,4.13619 -1.75247,11.37213 -1.88325,24.38316 -0.63976,37.08455 0.53836,5.49897 1.34526,10.93387 2.40502,16.14992 -0.44654,0.59443 -0.88964,1.19216 -1.3286,1.79369 -6.7536,9.25494 -12.56345,19.30894 -15.95303,29.05662 -1.10334,3.17296 -1.95122,6.31869 -2.48719,9.39633 -3.59856,-1.08907 -7.46334,-1.57451 -11.29026,-1.45676 -2.32962,0.0717 -4.66031,0.37409 -6.9231,0.90485 -4.43225,-4.16467 -9.955269,-7.65455 -15.822804,-10.22159 -5.992934,-2.62192 -12.408175,-4.31474 -18.499129,-4.70928 3.29166,-9.8762 4.265993,-21.92606 3.078882,-33.89612 -0.459584,-4.63414 -1.251527,-9.26415 -2.374532,-13.75936 1.576091,-6.87775 2.509956,-13.91451 2.557465,-20.66799 3.465994,-2.3982 6.836571,-5.07337 10.02988,-7.9127 7.026937,-6.24801 13.191148,-13.27792 17.593238,-19.89284 z m -53.643751,15.63832 c 5.76417,3.68649 10.509017,9.30857 14.198616,16.05328 -0.735941,0.35345 -1.471097,0.69468 -2.204516,1.01028 -7.570002,3.25752 -14.904202,4.41137 -21.07985,2.45566 a 74.083335,74.083335 0 0 1 9.08575,-19.51922 z m 124.448221,0.95395 a 74.083335,74.083335 0 0 1 8.9023,20.15742 c -4.93297,1.71084 -11.18863,6.10573 -17.95808,12.20804 -5.99562,5.40475 -12.32869,12.16292 -18.17718,19.60966 -0.82555,-4.42265 -1.47238,-8.99273 -1.92443,-13.61002 -1.21753,-12.43634 -1.00488,-25.21454 0.68626,-36.26601 3.2539,0.62837 6.42567,1.06087 9.4387,1.27383 7.80986,0.55201 14.59132,-0.29755 19.03243,-3.37292 z M 67.235172,164.54295 c -0.123235,4.35923 -0.61032,8.84361 -1.4087,13.32528 -1.133859,-3.52321 -2.487583,-6.91991 -4.065902,-10.12082 1.837272,-0.9759 3.666016,-2.04794 5.474602,-3.20446 z m -7.878591,4.41988 c 2.210676,4.48154 3.984615,9.38533 5.312339,14.50093 -0.09923,0.4221 -0.197972,0.8446 -0.302308,1.26555 -4.638548,18.71416 -14.359868,36.04063 -23.448697,41.97315 a 74.083335,74.083335 0 0 1 -9.167916,-35.53581 74.083335,74.083335 0 0 1 2.447913,-18.52187 c 6.992289,2.16284 14.904727,0.79732 22.780004,-2.59157 0.793182,-0.34132 1.586087,-0.70881 2.378665,-1.09038 z m 118.518869,5.32009 a 74.083335,74.083335 0 0 1 2.04122,16.88373 74.083335,74.083335 0 0 1 -20.90725,51.46766 c -5.04016,-3.81475 -9.43233,-11.02567 -12.78372,-20.1533 -1.74297,-4.74702 -3.21173,-10.00415 -4.38836,-15.55047 6.13392,-8.03913 12.91752,-15.36368 19.26549,-21.08605 6.47894,-5.84044 12.57149,-9.99279 16.77262,-11.56157 z M 65.938092,189.11199 c 0.524208,2.74192 0.929526,5.51897 1.205611,8.30285 1.188463,11.98366 0.02511,23.99806 -3.307808,33.55041 -6.404763,0.0284 -12.299476,1.62008 -16.757115,5.24103 a 74.083335,74.083335 0 0 1 -4.843633,-7.20835 c 9.701922,-6.20286 18.677621,-22.12023 23.702945,-39.88594 z m 73.805318,20.622 c 1.10842,4.82751 2.4438,9.42565 3.99821,13.65911 3.40126,9.26344 7.82444,16.81338 13.4276,21.16202 a 74.083335,74.083335 0 0 1 -22.40639,14.72726 c -2.46417,-5.61898 -7.26071,-9.56913 -12.993,-11.85767 0.49756,-3.04619 1.32966,-6.20069 2.44843,-9.41803 3.25533,-9.36158 8.91307,-19.19768 15.52515,-28.27269 z m -76.951894,23.97218 c -1.938671,4.66509 -4.447998,8.61149 -7.510137,11.48974 a 74.083335,74.083335 0 0 1 -6.548953,-6.91896 c 3.611303,-2.93384 8.549931,-4.37914 14.05909,-4.57078 z m 2.936253,0.01 c 5.949291,0.25087 12.375454,1.82915 18.408179,4.46846 5.112665,2.23679 9.886292,5.209 13.832752,8.66976 -7.015405,2.38588 -12.992486,7.17649 -15.603704,14.51177 a 74.083335,74.083335 0 0 1 -25.14265,-14.3619 c 3.591627,-3.40923 6.415376,-7.9742 8.505423,-13.28807 z m 42.990661,13.99141 c 3.47723,-0.0345 6.93689,0.47398 10.12806,1.495 -0.59182,5.15643 -0.22563,10.07859 1.39114,14.56242 a 74.083335,74.083335 0 0 1 -9.12348,1.29449 c -0.37679,-6.18077 -3.36188,-11.91047 -7.88738,-16.84341 1.57311,-0.28029 3.18002,-0.44485 4.7961,-0.49455 0.2319,-0.007 0.46374,-0.012 0.69556,-0.0139 z m -8.54625,1.21543 c 4.77287,4.82183 7.92142,10.4203 8.29769,16.23363 a 74.083335,74.083335 0 0 1 -2.63653,0.0935 74.083335,74.083335 0 0 1 -20.949635,-3.06802 c 2.482874,-6.88993 8.362895,-11.28362 15.288475,-13.25914 z m 21.24057,1.23869 c 4.88002,2.10233 8.87578,5.52613 10.91871,10.16888 a 74.083335,74.083335 0 0 1 -9.48831,2.84996 c -1.475,-3.91343 -1.88971,-8.31275 -1.4304,-13.01884 z"
       id="path8514-3-7-6-7"
       inkscape:connector-curvature="0" />
    <path
       style="fill:url(#linearGradient8526-7-5-8);fill-opacity:1;stroke:none;stroke-width:0.99785715;stroke-linecap:square;stroke-miterlimit:10;stroke-dasharray:0.99785716, 11.97428594;stroke-dashoffset:0;stroke-opacity:1"
       d="m 105.83334,103.85415 a 87.312499,87.312499 0 0 0 -87.312507,87.3125 87.312499,87.312499 0 0 0 87.312507,87.3125 87.312499,87.312499 0 0 0 87.31249,-87.3125 87.312499,87.312499 0 0 0 -87.31249,-87.3125 z m 0,13.22916 a 74.083335,74.083335 0 0 1 39.63375,11.5931 c -3.67065,5.55429 -6.22774,13.11363 -7.7897,21.76094 -4.4512,-0.99773 -9.03419,-2.34953 -13.52786,-4.00286 -8.66136,-3.18673 -16.9938,-7.48397 -23.42545,-12.39872 -0.58626,-0.44799 -1.15056,-0.90253 -1.70325,-1.36013 3.58527,-5.8213 5.71354,-11.18706 5.49217,-15.54582 a 74.083335,74.083335 0 0 1 1.32034,-0.0465 z m -3.96514,0.14056 c 0.17598,3.25179 -1.59,8.20378 -4.87309,13.68289 -4.06452,-3.75447 -6.939549,-7.76056 -8.121467,-11.76517 a 74.083335,74.083335 0 0 1 12.994557,-1.91772 z m -15.587164,2.49959 c 1.369007,4.83967 4.719254,9.36007 9.275924,13.4674 -0.0184,0.0279 -0.0353,0.0553 -0.0538,0.0832 -4.255116,6.43546 -10.342083,13.40358 -17.271299,19.56469 -2.66573,2.37023 -5.457824,4.61916 -8.315772,6.67815 -0.383789,-10.51507 -3.092572,-20.13802 -9.113604,-27.11152 a 74.083335,74.083335 0 0 1 25.478551,-12.68192 z m 61.438634,10.34201 a 74.083335,74.083335 0 0 1 19.1642,19.27169 c -3.57482,2.45786 -9.84589,3.43918 -17.34157,2.90938 -2.91237,-0.20584 -6.00423,-0.62912 -9.18962,-1.24695 1.52265,-8.49896 3.96954,-15.81553 7.36699,-20.93412 z m -88.987339,3.992 c 5.829795,6.70703 8.380537,16.5022 8.529196,27.30428 -2.220381,1.48397 -4.468971,2.83846 -6.720004,4.03644 -3.856363,-7.07164 -8.880313,-13.03001 -15.116908,-17.02841 a 74.083335,74.083335 0 0 1 13.307716,-14.31231 z m 38.850339,0.86455 c 0.50202,0.40977 1.0115,0.81682 1.53583,1.2175 6.71484,5.13114 15.2501,9.5145 24.11739,12.77699 4.64802,1.71012 9.38393,3.10776 14.0007,4.13619 -1.75247,11.37213 -1.88325,24.38316 -0.63976,37.08455 0.53836,5.49897 1.34526,10.93387 2.40502,16.14992 -0.44654,0.59442 -0.88964,1.19216 -1.3286,1.79369 -6.7536,9.25493 -12.56345,19.30895 -15.95303,29.05662 -1.10334,3.17296 -1.95122,6.3187 -2.48719,9.39633 -3.59856,-1.08907 -7.46335,-1.57451 -11.29026,-1.45676 -2.32963,0.0717 -4.6603,0.37409 -6.9231,0.90485 -4.43225,-4.16467 -9.955272,-7.65454 -15.822804,-10.22159 -5.992937,-2.62191 -12.408177,-4.31475 -18.499129,-4.70928 3.29166,-9.8762 4.265993,-21.92607 3.078882,-33.89612 -0.459584,-4.63414 -1.251527,-9.26415 -2.374532,-13.75936 1.576091,-6.87776 2.509956,-13.91451 2.557465,-20.66799 3.465994,-2.3982 6.836571,-5.07337 10.02988,-7.9127 7.026934,-6.24801 13.191148,-13.27792 17.593238,-19.89284 z m -53.643751,15.63832 c 5.76417,3.68649 10.509017,9.30857 14.198616,16.05328 -0.735941,0.35345 -1.471097,0.69468 -2.204516,1.01028 -7.570002,3.25752 -14.904202,4.41137 -21.07985,2.45566 a 74.083335,74.083335 0 0 1 9.08575,-19.51922 z m 124.448221,0.95395 a 74.083335,74.083335 0 0 1 8.9023,20.15742 c -4.93297,1.71084 -11.18863,6.10572 -17.95808,12.20804 -5.99562,5.40475 -12.32869,12.16292 -18.17718,19.60966 -0.82555,-4.42265 -1.47238,-8.99273 -1.92443,-13.61002 -1.21753,-12.43634 -1.00488,-25.21454 0.68626,-36.26601 3.2539,0.62837 6.42567,1.06087 9.4387,1.27383 7.80986,0.55201 14.59132,-0.29755 19.03243,-3.37292 z M 67.235172,164.54295 c -0.123235,4.35923 -0.61032,8.8436 -1.4087,13.32528 -1.133859,-3.52322 -2.487581,-6.91991 -4.065902,-10.12082 1.837274,-0.9759 3.666016,-2.04794 5.474602,-3.20446 z m -7.878591,4.41988 c 2.210676,4.48154 3.984615,9.38533 5.312339,14.50093 -0.09923,0.4221 -0.197972,0.8446 -0.302308,1.26555 -4.63855,18.71416 -14.359868,36.04063 -23.448697,41.97315 a 74.083335,74.083335 0 0 1 -9.167916,-35.53581 74.083335,74.083335 0 0 1 2.447913,-18.52187 c 6.992289,2.16284 14.904727,0.79732 22.780004,-2.59157 0.793182,-0.34132 1.586087,-0.70881 2.378665,-1.09038 z m 118.518869,5.32009 a 74.083335,74.083335 0 0 1 2.04122,16.88373 74.083335,74.083335 0 0 1 -20.90725,51.46766 c -5.04016,-3.81476 -9.43233,-11.02566 -12.78372,-20.1533 -1.74297,-4.74702 -3.21173,-10.00415 -4.38836,-15.55047 6.13392,-8.03913 12.91752,-15.36368 19.26549,-21.08605 6.47894,-5.84044 12.57149,-9.99279 16.77262,-11.56157 z M 65.938092,189.11199 c 0.524208,2.74192 0.929526,5.51897 1.205611,8.30285 1.188463,11.98365 0.02511,23.99805 -3.307808,33.55041 -6.404766,0.0284 -12.299476,1.62008 -16.757115,5.24103 a 74.083335,74.083335 0 0 1 -4.843633,-7.20835 c 9.701922,-6.20286 18.677621,-22.12023 23.702945,-39.88594 z m 73.805318,20.622 c 1.10842,4.82751 2.4438,9.42564 3.99821,13.65911 3.40126,9.26344 7.82444,16.81338 13.4276,21.16202 a 74.083335,74.083335 0 0 1 -22.40639,14.72726 c -2.46417,-5.61897 -7.26071,-9.56913 -12.993,-11.85767 0.49756,-3.04618 1.32966,-6.20069 2.44843,-9.41803 3.25533,-9.36159 8.91307,-19.19768 15.52515,-28.27269 z m -76.951894,23.97218 c -1.938674,4.6651 -4.447998,8.6115 -7.510137,11.48974 a 74.083335,74.083335 0 0 1 -6.548953,-6.91896 c 3.611303,-2.93383 8.549931,-4.37914 14.05909,-4.57078 z m 2.936253,0.01 c 5.949291,0.25087 12.375454,1.82914 18.408179,4.46846 5.112665,2.23679 9.886282,5.209 13.832752,8.66976 -7.015411,2.38588 -12.992486,7.17649 -15.603704,14.51177 a 74.083335,74.083335 0 0 1 -25.14265,-14.3619 c 3.591627,-3.40923 6.415376,-7.9742 8.505423,-13.28807 z m 42.990661,13.99141 c 3.47723,-0.0345 6.93689,0.47398 10.12806,1.495 -0.59181,5.15643 -0.22563,10.07859 1.39114,14.56242 a 74.083335,74.083335 0 0 1 -9.12348,1.29449 c -0.3768,-6.18077 -3.36188,-11.91047 -7.88738,-16.84341 1.57311,-0.28029 3.18002,-0.44485 4.7961,-0.49455 0.23189,-0.007 0.46374,-0.012 0.69556,-0.0139 z m -8.54625,1.21543 c 4.77287,4.82183 7.92142,10.4203 8.29769,16.23363 a 74.083335,74.083335 0 0 1 -2.63653,0.0935 74.083335,74.083335 0 0 1 -20.949635,-3.06802 c 2.482874,-6.88993 8.362895,-11.28362 15.288475,-13.25914 z m 21.24057,1.23869 c 4.88002,2.10233 8.87578,5.52613 10.91871,10.16888 a 74.083335,74.083335 0 0 1 -9.48831,2.84996 c -1.475,-3.91343 -1.88971,-8.31275 -1.4304,-13.01884 z"
       id="path8514-35-7-6"
       inkscape:connector-curvature="0" />
    <path
       style="fill:url(#linearGradient8590-9-09-3);fill-opacity:1;stroke:none;stroke-width:0.99785715;stroke-linecap:square;stroke-miterlimit:10;stroke-dasharray:0.99785717, 11.97428621;stroke-dashoffset:0;stroke-opacity:1"
       d="m 105.83334,103.85415 a 87.312499,87.312499 0 0 0 -87.312507,87.3125 87.312499,87.312499 0 0 0 87.312507,87.3125 87.312499,87.312499 0 0 0 87.31249,-87.3125 87.312499,87.312499 0 0 0 -87.31249,-87.3125 z m 0,13.22916 a 74.083335,74.083335 0 0 1 39.63375,11.5931 c -3.67065,5.55429 -6.22775,13.11362 -7.7897,21.76094 -4.45121,-0.99773 -9.03419,-2.34952 -13.52786,-4.00286 -8.66136,-3.18672 -16.9938,-7.48397 -23.42545,-12.39872 -0.58626,-0.448 -1.15056,-0.90252 -1.70325,-1.36013 3.58527,-5.8213 5.71354,-11.18706 5.49217,-15.54582 a 74.083335,74.083335 0 0 1 1.32034,-0.0465 z m -3.96514,0.14056 c 0.17598,3.25179 -1.59,8.20377 -4.87309,13.68289 -4.06452,-3.75447 -6.939549,-7.76055 -8.121467,-11.76517 a 74.083335,74.083335 0 0 1 12.994557,-1.91772 z m -15.587164,2.49959 c 1.369007,4.83968 4.719254,9.36007 9.275924,13.4674 -0.0184,0.0279 -0.0353,0.0553 -0.0538,0.0832 -4.255116,6.43545 -10.342083,13.40358 -17.271299,19.56469 -2.66573,2.37024 -5.457824,4.61916 -8.315772,6.67815 -0.383789,-10.51507 -3.092572,-20.13803 -9.113604,-27.11152 a 74.083335,74.083335 0 0 1 25.478551,-12.68192 z m 61.438634,10.34201 a 74.083335,74.083335 0 0 1 19.1642,19.27169 c -3.57482,2.45786 -9.84589,3.43918 -17.34157,2.90938 -2.91237,-0.20585 -6.00424,-0.62913 -9.18962,-1.24695 1.52265,-8.49896 3.96954,-15.81553 7.36699,-20.93412 z m -88.987339,3.992 c 5.829795,6.70704 8.380537,16.5022 8.529196,27.30428 -2.220381,1.48397 -4.468971,2.83847 -6.720004,4.03644 -3.856363,-7.07165 -8.880316,-13.03001 -15.116908,-17.02841 a 74.083335,74.083335 0 0 1 13.307716,-14.31231 z m 38.850339,0.86455 c 0.50202,0.40976 1.0115,0.81683 1.53583,1.2175 6.71484,5.13114 15.25011,9.5145 24.11739,12.77699 4.64802,1.71012 9.38393,3.10777 14.0007,4.13619 -1.75248,11.37214 -1.88325,24.38317 -0.63976,37.08455 0.53837,5.49897 1.34526,10.93387 2.40502,16.14992 -0.44654,0.59441 -0.88964,1.19215 -1.3286,1.79369 -6.75359,9.25493 -12.56345,19.30896 -15.95303,29.05662 -1.10334,3.17296 -1.95122,6.3187 -2.48719,9.39633 -3.59856,-1.08908 -7.46334,-1.57451 -11.29026,-1.45676 -2.32963,0.0717 -4.6603,0.37409 -6.9231,0.90485 -4.43225,-4.16467 -9.955272,-7.65455 -15.822804,-10.22159 -5.992937,-2.62191 -12.408177,-4.31475 -18.499129,-4.70928 3.29166,-9.87619 4.265993,-21.92607 3.078882,-33.89612 -0.459584,-4.63414 -1.251527,-9.26415 -2.374532,-13.75936 1.576091,-6.87775 2.509959,-13.91451 2.557465,-20.66799 3.465994,-2.3982 6.836574,-5.07337 10.02988,-7.9127 7.026937,-6.24801 13.191148,-13.27792 17.593238,-19.89284 z m -53.643751,15.63832 c 5.76417,3.68649 10.509017,9.30858 14.198616,16.05328 -0.735941,0.35345 -1.471097,0.69467 -2.204516,1.01028 -7.570002,3.25752 -14.904203,4.41137 -21.07985,2.45566 a 74.083335,74.083335 0 0 1 9.08575,-19.51922 z m 124.448221,0.95395 a 74.083335,74.083335 0 0 1 8.9023,20.15742 c -4.93297,1.71084 -11.18863,6.10572 -17.95808,12.20804 -5.99562,5.40475 -12.3287,12.16292 -18.17718,19.60966 -0.82555,-4.42265 -1.47239,-8.99273 -1.92443,-13.61002 -1.21754,-12.43634 -1.00488,-25.21454 0.68626,-36.26601 3.2539,0.62838 6.42568,1.06086 9.4387,1.27383 7.80986,0.552 14.59133,-0.29755 19.03243,-3.37292 z M 67.235172,164.54295 c -0.123235,4.35922 -0.61032,8.8436 -1.4087,13.32528 -1.133859,-3.52321 -2.487581,-6.91991 -4.065902,-10.12082 1.837274,-0.9759 3.666016,-2.04794 5.474602,-3.20446 z m -7.878591,4.41988 c 2.210673,4.48155 3.984615,9.38533 5.312339,14.50093 -0.09923,0.4221 -0.197972,0.84461 -0.302308,1.26555 -4.63855,18.71415 -14.359868,36.04063 -23.448697,41.97315 a 74.083335,74.083335 0 0 1 -9.167916,-35.53581 74.083335,74.083335 0 0 1 2.447913,-18.52187 c 6.992288,2.16283 14.904727,0.79731 22.780004,-2.59157 0.793182,-0.34132 1.586085,-0.7088 2.378665,-1.09038 z m 118.518869,5.32009 a 74.083335,74.083335 0 0 1 2.04122,16.88373 74.083335,74.083335 0 0 1 -20.90725,51.46766 c -5.04016,-3.81476 -9.43233,-11.02567 -12.78372,-20.1533 -1.74297,-4.74701 -3.21173,-10.00414 -4.38836,-15.55047 6.13393,-8.03912 12.91752,-15.36367 19.26549,-21.08605 6.47894,-5.84044 12.57149,-9.99278 16.77262,-11.56157 z M 65.938092,189.11199 c 0.524208,2.74192 0.929526,5.51898 1.205611,8.30285 1.188463,11.98365 0.02511,23.99804 -3.307808,33.55041 -6.404766,0.0284 -12.299476,1.62009 -16.757115,5.24103 a 74.083335,74.083335 0 0 1 -4.843633,-7.20835 c 9.701922,-6.20287 18.677621,-22.12023 23.702945,-39.88594 z m 73.805318,20.622 c 1.10843,4.82751 2.4438,9.42565 3.99821,13.65911 3.40126,9.26345 7.82444,16.81337 13.4276,21.16202 a 74.083335,74.083335 0 0 1 -22.40639,14.72726 c -2.46418,-5.61897 -7.26071,-9.56912 -12.993,-11.85767 0.49756,-3.04618 1.32966,-6.20069 2.44843,-9.41803 3.25532,-9.3616 8.91307,-19.19768 15.52515,-28.27269 z m -76.951894,23.97218 c -1.938674,4.66509 -4.447998,8.6115 -7.510137,11.48974 a 74.083335,74.083335 0 0 1 -6.548953,-6.91896 c 3.611305,-2.93383 8.549931,-4.37915 14.05909,-4.57078 z m 2.936253,0.01 c 5.949291,0.25087 12.375454,1.82914 18.408179,4.46846 5.112665,2.23679 9.886282,5.209 13.832752,8.66976 -7.015411,2.38587 -12.992486,7.17649 -15.603704,14.51177 a 74.083335,74.083335 0 0 1 -25.14265,-14.3619 c 3.591627,-3.40923 6.415376,-7.9742 8.505423,-13.28807 z m 42.990661,13.99141 c 3.47723,-0.0345 6.93689,0.47398 10.12806,1.495 -0.59181,5.15643 -0.22563,10.07859 1.39114,14.56242 a 74.083335,74.083335 0 0 1 -9.12348,1.29449 c -0.3768,-6.18076 -3.36188,-11.91048 -7.88738,-16.84341 1.57311,-0.28029 3.18002,-0.44482 4.7961,-0.49455 0.23189,-0.007 0.46374,-0.0117 0.69556,-0.0139 z m -8.54625,1.21543 c 4.77287,4.82184 7.92142,10.4203 8.29769,16.23363 a 74.083335,74.083335 0 0 1 -2.63653,0.0935 74.083335,74.083335 0 0 1 -20.949635,-3.06802 c 2.482874,-6.88994 8.362905,-11.28362 15.288475,-13.25914 z m 21.24057,1.23869 c 4.88002,2.10233 8.87579,5.52613 10.91871,10.16888 a 74.083335,74.083335 0 0 1 -9.48831,2.84996 c -1.47505,-3.91343 -1.88971,-8.31274 -1.4304,-13.01884 z"
       id="path8514-3-9-0-7-8"
       inkscape:connector-curvature="0" />
  </g>
</svg>
